<svg width="17" height="16" viewBox="0 0 17 16" fill="none" xmlns="http://www.w3.org/2000/svg">
<path d="M8.47378 0.25C12.755 0.25 16.2238 3.71875 16.2238 8C16.2238 12.2812 12.755 15.75 8.47378 15.75C4.19253 15.75 0.72378 12.2812 0.72378 8C0.72378 3.71875 4.19253 0.25 8.47378 0.25ZM8.47378 14.25C11.9113 14.25 14.7238 11.4688 14.7238 8C14.7238 4.5625 11.9113 1.75 8.47378 1.75C5.00503 1.75 2.22378 4.5625 2.22378 8C2.22378 11.4688 5.00503 14.25 8.47378 14.25ZM10.38 11L7.72378 9.0625C7.63003 9 7.59878 8.875 7.59878 8.78125V3.625C7.59878 3.4375 7.75503 3.25 7.97378 3.25H8.97378C9.16128 3.25 9.34878 3.4375 9.34878 3.625V8.0625L11.4113 9.59375C11.5988 9.71875 11.63 9.9375 11.505 10.125L10.9113 10.9062C10.7863 11.0938 10.5675 11.125 10.38 11Z" fill="white"/>
</svg>
