<svg width="18" height="18" viewBox="0 0 18 18" fill="none" xmlns="http://www.w3.org/2000/svg">
<path d="M11.1313 6.8125C13.0063 8.6875 12.975 11.6875 11.1313 13.5C11.1313 13.5312 11.1313 13.5312 11.1313 13.5312L9.0375 15.625C7.19375 17.4688 4.1625 17.4688 2.31875 15.625C0.475 13.7812 0.475 10.75 2.31875 8.90625L3.475 7.75C3.7875 7.4375 4.31875 7.65625 4.31875 8.09375C4.35 8.625 4.44375 9.1875 4.63125 9.71875C4.69375 9.90625 4.6625 10.125 4.50625 10.25L4.1 10.6562C3.225 11.5312 3.19375 12.9688 4.06875 13.8438C4.94375 14.75 6.38125 14.75 7.25625 13.8438L9.38125 11.75C10.2563 10.875 10.2563 9.46875 9.38125 8.5625C9.25625 8.46875 9.13125 8.375 9.0375 8.3125C8.9125 8.21875 8.81875 8.09375 8.81875 7.90625C8.81875 7.59375 8.94375 7.25 9.19375 6.96875L9.85 6.3125C10.0375 6.15625 10.2875 6.125 10.5063 6.28125C10.725 6.4375 10.9438 6.625 11.1313 6.8125ZM15.5375 2.40625C17.3813 4.25 17.3813 7.28125 15.5375 9.125L14.3813 10.2812C14.0688 10.5938 13.5375 10.375 13.5375 9.9375C13.5063 9.40625 13.4125 8.84375 13.225 8.3125C13.1625 8.125 13.1938 7.90625 13.35 7.78125L13.7563 7.375C14.6313 6.5 14.6625 5.0625 13.7875 4.1875C12.9125 3.28125 11.475 3.28125 10.6 4.1875L8.475 6.28125C7.6 7.15625 7.6 8.5625 8.475 9.46875C8.6 9.5625 8.725 9.65625 8.81875 9.71875C8.94375 9.8125 9.0375 9.9375 9.0375 10.125C9.0375 10.4375 8.9125 10.7812 8.6625 11.0625L8.00625 11.7188C7.81875 11.875 7.56875 11.9062 7.35 11.75C7.13125 11.5938 6.9125 11.4062 6.725 11.2188C4.85 9.34375 4.88125 6.34375 6.725 4.53125C6.725 4.5 6.725 4.5 6.725 4.5L8.81875 2.40625C10.6625 0.5625 13.6938 0.5625 15.5375 2.40625Z" fill="white"/>
</svg>
