<svg width="17" height="14" viewBox="0 0 17 14" fill="none" xmlns="http://www.w3.org/2000/svg">
<path d="M4.80374 5.5C5.33499 5.5 5.80374 5.96875 5.80374 6.5C5.80374 7.0625 5.33499 7.5 4.80374 7.5C4.24124 7.5 3.80374 7.0625 3.80374 6.5C3.80374 5.96875 4.24124 5.5 4.80374 5.5ZM8.30374 5.5C8.83499 5.5 9.30374 5.96875 9.30374 6.5C9.30374 7.0625 8.83499 7.5 8.30374 7.5C7.74124 7.5 7.30374 7.0625 7.30374 6.5C7.30374 5.96875 7.74124 5.5 8.30374 5.5ZM11.8037 5.5C12.335 5.5 12.8037 5.96875 12.8037 6.5C12.8037 7.0625 12.335 7.5 11.8037 7.5C11.2412 7.5 10.8037 7.0625 10.8037 6.5C10.8037 5.96875 11.2412 5.5 11.8037 5.5ZM8.30374 0C12.71 0 16.3037 2.9375 16.3037 6.5C16.3037 10.0938 12.71 13 8.30374 13C7.27249 13 6.30374 12.8438 5.39749 12.5625C4.49124 13.2188 2.95999 14 1.05374 14C0.741236 14 0.459986 13.8438 0.334986 13.5625C0.241236 13.2812 0.272486 12.9688 0.491236 12.75C0.522486 12.75 1.49124 11.6875 1.92874 10.4688C0.897486 9.375 0.303736 8 0.303736 6.5C0.303736 2.9375 3.86624 0 8.30374 0ZM8.30374 11.5C11.8662 11.5 14.8037 9.28125 14.8037 6.5C14.8037 3.75 11.8662 1.5 8.30374 1.5C4.70999 1.5 1.80374 3.75 1.80374 6.5C1.80374 7.84375 2.45999 8.84375 3.02249 9.4375L3.67874 10.125L3.33499 11C3.17874 11.4375 2.95999 11.875 2.70999 12.25C3.45999 12 4.08499 11.6562 4.52249 11.3438L5.11624 10.9062L5.83499 11.125C6.61624 11.375 7.45999 11.5 8.30374 11.5Z" fill="white"/>
</svg>
