<svg width="12" height="13" viewBox="0 0 12 13" fill="none" xmlns="http://www.w3.org/2000/svg">
<path d="M6.3175 3.45508C7.91711 3.45508 9.23743 4.77539 9.23743 6.375C9.23743 8 7.91711 9.29492 6.3175 9.29492C4.6925 9.29492 3.39758 8 3.39758 6.375C3.39758 4.77539 4.6925 3.45508 6.3175 3.45508ZM6.3175 8.2793C7.35852 8.2793 8.19641 7.44141 8.19641 6.375C8.19641 5.33398 7.35852 4.49609 6.3175 4.49609C5.2511 4.49609 4.41321 5.33398 4.41321 6.375C4.41321 7.44141 5.27649 8.2793 6.3175 8.2793ZM10.0245 3.35352C10.0245 3.73438 9.71985 4.03906 9.33899 4.03906C8.95813 4.03906 8.65344 3.73438 8.65344 3.35352C8.65344 2.97266 8.95813 2.66797 9.33899 2.66797C9.71985 2.66797 10.0245 2.97266 10.0245 3.35352ZM11.9542 4.03906C12.005 4.97852 12.005 7.79688 11.9542 8.73633C11.9034 9.65039 11.7003 10.4375 11.0402 11.123C10.38 11.7832 9.5675 11.9863 8.65344 12.0371C7.71399 12.0879 4.89563 12.0879 3.95618 12.0371C3.04211 11.9863 2.255 11.7832 1.56946 11.123C0.909302 10.4375 0.706177 9.65039 0.655396 8.73633C0.604614 7.79688 0.604614 4.97852 0.655396 4.03906C0.706177 3.125 0.909302 2.3125 1.56946 1.65234C2.255 0.992188 3.04211 0.789062 3.95618 0.738281C4.89563 0.6875 7.71399 0.6875 8.65344 0.738281C9.5675 0.789062 10.38 0.992188 11.0402 1.65234C11.7003 2.3125 11.9034 3.125 11.9542 4.03906ZM10.7355 9.72656C11.0402 8.99023 10.964 7.21289 10.964 6.375C10.964 5.5625 11.0402 3.78516 10.7355 3.02344C10.5323 2.54102 10.1515 2.13477 9.66907 1.95703C8.90735 1.65234 7.13 1.72852 6.3175 1.72852C5.47961 1.72852 3.70227 1.65234 2.96594 1.95703C2.45813 2.16016 2.07727 2.54102 1.87415 3.02344C1.56946 3.78516 1.64563 5.5625 1.64563 6.375C1.64563 7.21289 1.56946 8.99023 1.87415 9.72656C2.07727 10.2344 2.45813 10.6152 2.96594 10.8184C3.70227 11.123 5.47961 11.0469 6.3175 11.0469C7.13 11.0469 8.90735 11.123 9.66907 10.8184C10.1515 10.6152 10.5577 10.2344 10.7355 9.72656Z" fill="#333333"/>
</svg>
