<svg width="15" height="11" viewBox="0 0 15 11" fill="none" xmlns="http://www.w3.org/2000/svg">
<path d="M6.58717 5.89844L2.0403 10.4688C1.80592 10.6797 1.45436 10.6797 1.24342 10.4688L0.704361 9.92969C0.493423 9.71875 0.493423 9.36719 0.704361 9.13281L4.31374 5.5L0.704361 1.89062C0.493423 1.65625 0.493423 1.30469 0.704361 1.09375L1.24342 0.554688C1.45436 0.34375 1.80592 0.34375 2.0403 0.554688L6.58717 5.125C6.79811 5.33594 6.79811 5.6875 6.58717 5.89844ZM14.0872 5.89844L9.5403 10.4688C9.30592 10.6797 8.95436 10.6797 8.74342 10.4688L8.20436 9.92969C7.99342 9.71875 7.99342 9.36719 8.20436 9.13281L11.8137 5.5L8.20436 1.89062C7.99342 1.65625 7.99342 1.30469 8.20436 1.09375L8.74342 0.554688C8.95436 0.34375 9.30592 0.34375 9.5403 0.554688L14.0872 5.125C14.2981 5.33594 14.2981 5.6875 14.0872 5.89844Z" fill="#FF5421"/>
</svg>
