<svg width="17" height="16" viewBox="0 0 17 16" fill="none" xmlns="http://www.w3.org/2000/svg">
<path d="M8.57376 0.25C12.8238 0.25 16.3238 3.75 16.3238 8C16.3238 12.2812 12.8238 15.75 8.57376 15.75C4.29251 15.75 0.823755 12.2812 0.823755 8C0.823755 3.75 4.29251 0.25 8.57376 0.25ZM8.57376 3.6875C7.82376 3.6875 7.26126 4.28125 7.26126 5C7.26126 5.75 7.82376 6.3125 8.57376 6.3125C9.29251 6.3125 9.88626 5.75 9.88626 5C9.88626 4.28125 9.29251 3.6875 8.57376 3.6875ZM10.3238 11.625V10.875C10.3238 10.6875 10.1363 10.5 9.94876 10.5H9.57376V7.375C9.57376 7.1875 9.38626 7 9.19876 7H7.19876C6.98001 7 6.82376 7.1875 6.82376 7.375V8.125C6.82376 8.34375 6.98001 8.5 7.19876 8.5H7.57376V10.5H7.19876C6.98001 10.5 6.82376 10.6875 6.82376 10.875V11.625C6.82376 11.8438 6.98001 12 7.19876 12H9.94876C10.1363 12 10.3238 11.8438 10.3238 11.625Z" fill="#999999"/>
</svg>
