<svg width="17" height="16" viewBox="0 0 17 16" fill="none" xmlns="http://www.w3.org/2000/svg">
<path d="M15.855 11.3125C16.105 11.4375 16.2925 11.7188 16.2925 12.0312C16.2925 12.0625 16.2925 12.125 16.2925 12.1875L15.5425 15.4375C15.4488 15.7812 15.1675 16 14.8238 16C6.79251 16 0.323755 9.53125 0.323755 1.5C0.323755 1.15625 0.542505 0.875 0.886255 0.78125L4.13626 0.03125C4.19876 0.03125 4.26126 0 4.29251 0C4.60501 0 4.88626 0.1875 5.01126 0.46875L6.51126 3.96875C6.54251 4.0625 6.57376 4.15625 6.57376 4.25C6.57376 4.5 6.44876 4.71875 6.29251 4.84375L4.38626 6.40625C5.54251 8.84375 7.48001 10.7812 9.91751 11.9375L11.48 10.0312C11.605 9.875 11.8238 9.75 12.0425 9.75C12.1675 9.75 12.2613 9.78125 12.355 9.8125L15.855 11.3125Z" fill="white"/>
</svg>
