<svg width="14" height="11" viewBox="0 0 14 11" fill="none" xmlns="http://www.w3.org/2000/svg">
<path d="M12.2843 2.73438C12.2843 2.86133 12.2843 2.96289 12.2843 3.08984C12.2843 6.61914 9.61829 10.6562 4.7179 10.6562C3.19446 10.6562 1.79797 10.2246 0.630005 9.46289C0.83313 9.48828 1.03625 9.51367 1.26477 9.51367C2.50891 9.51367 3.65149 9.08203 4.56555 8.37109C3.39758 8.3457 2.40735 7.58398 2.07727 6.51758C2.255 6.54297 2.40735 6.56836 2.58508 6.56836C2.8136 6.56836 3.0675 6.51758 3.27063 6.4668C2.05188 6.21289 1.13782 5.14648 1.13782 3.85156V3.82617C1.49329 4.0293 1.92493 4.13086 2.35657 4.15625C1.62024 3.67383 1.16321 2.86133 1.16321 1.94727C1.16321 1.43945 1.29016 0.982422 1.51868 0.601562C2.83899 2.20117 4.81946 3.26758 7.02844 3.39453C6.97766 3.19141 6.95227 2.98828 6.95227 2.78516C6.95227 1.3125 8.14563 0.119141 9.61829 0.119141C10.38 0.119141 11.0656 0.423828 11.5734 0.957031C12.1573 0.830078 12.7413 0.601562 13.2491 0.296875C13.046 0.931641 12.6398 1.43945 12.0812 1.76953C12.6144 1.71875 13.1476 1.56641 13.6046 1.36328C13.2491 1.89648 12.7921 2.35352 12.2843 2.73438Z" fill="#333333"/>
</svg>
