<svg width="13" height="13" viewBox="0 0 13 13" fill="none" xmlns="http://www.w3.org/2000/svg">
<path d="M6.84563 3.10547C8.56829 3.10547 9.99016 4.52734 9.99016 6.25C9.99016 8 8.56829 9.39453 6.84563 9.39453C5.09563 9.39453 3.7011 8 3.7011 6.25C3.7011 4.52734 5.09563 3.10547 6.84563 3.10547ZM6.84563 8.30078C7.96672 8.30078 8.86907 7.39844 8.86907 6.25C8.86907 5.12891 7.96672 4.22656 6.84563 4.22656C5.69719 4.22656 4.79485 5.12891 4.79485 6.25C4.79485 7.39844 5.72454 8.30078 6.84563 8.30078ZM10.8378 2.99609C10.8378 3.40625 10.5097 3.73438 10.0995 3.73438C9.68938 3.73438 9.36125 3.40625 9.36125 2.99609C9.36125 2.58594 9.68938 2.25781 10.0995 2.25781C10.5097 2.25781 10.8378 2.58594 10.8378 2.99609ZM12.9159 3.73438C12.9706 4.74609 12.9706 7.78125 12.9159 8.79297C12.8613 9.77734 12.6425 10.625 11.9316 11.3633C11.2206 12.0742 10.3456 12.293 9.36125 12.3477C8.34954 12.4023 5.31438 12.4023 4.30266 12.3477C3.31829 12.293 2.47063 12.0742 1.73235 11.3633C1.02141 10.625 0.802661 9.77734 0.747973 8.79297C0.693286 7.78125 0.693286 4.74609 0.747973 3.73438C0.802661 2.75 1.02141 1.875 1.73235 1.16406C2.47063 0.453125 3.31829 0.234375 4.30266 0.179688C5.31438 0.125 8.34954 0.125 9.36125 0.179688C10.3456 0.234375 11.2206 0.453125 11.9316 1.16406C12.6425 1.875 12.8613 2.75 12.9159 3.73438ZM11.6034 9.85938C11.9316 9.06641 11.8495 7.15234 11.8495 6.25C11.8495 5.375 11.9316 3.46094 11.6034 2.64062C11.3847 2.12109 10.9745 1.68359 10.455 1.49219C9.63469 1.16406 7.72063 1.24609 6.84563 1.24609C5.94329 1.24609 4.02922 1.16406 3.23625 1.49219C2.68938 1.71094 2.27922 2.12109 2.06047 2.64062C1.73235 3.46094 1.81438 5.375 1.81438 6.25C1.81438 7.15234 1.73235 9.06641 2.06047 9.85938C2.27922 10.4062 2.68938 10.8164 3.23625 11.0352C4.02922 11.3633 5.94329 11.2812 6.84563 11.2812C7.72063 11.2812 9.63469 11.3633 10.455 11.0352C10.9745 10.8164 11.412 10.4062 11.6034 9.85938Z" fill="white"/>
</svg>
