<svg width="15" height="12" viewBox="0 0 15 12" fill="none" xmlns="http://www.w3.org/2000/svg">
<path d="M12.9733 3.40625C12.9733 3.54297 12.9733 3.65234 12.9733 3.78906C12.9733 7.58984 10.1022 11.9375 4.82484 11.9375C3.18422 11.9375 1.68031 11.4727 0.422498 10.6523C0.641248 10.6797 0.859998 10.707 1.10609 10.707C2.44594 10.707 3.6764 10.2422 4.66078 9.47656C3.40297 9.44922 2.33656 8.62891 1.98109 7.48047C2.1725 7.50781 2.33656 7.53516 2.52797 7.53516C2.77406 7.53516 3.0475 7.48047 3.26625 7.42578C1.95375 7.15234 0.969373 6.00391 0.969373 4.60938V4.58203C1.35219 4.80078 1.81703 4.91016 2.28187 4.9375C1.4889 4.41797 0.996716 3.54297 0.996716 2.55859C0.996716 2.01172 1.13344 1.51953 1.37953 1.10938C2.8014 2.83203 4.93422 3.98047 7.31312 4.11719C7.25844 3.89844 7.23109 3.67969 7.23109 3.46094C7.23109 1.875 8.51625 0.589844 10.1022 0.589844C10.9225 0.589844 11.6608 0.917969 12.2077 1.49219C12.8366 1.35547 13.4655 1.10938 14.0123 0.78125C13.7936 1.46484 13.3561 2.01172 12.7545 2.36719C13.3287 2.3125 13.903 2.14844 14.3952 1.92969C14.0123 2.50391 13.5202 2.99609 12.9733 3.40625Z" fill="white"/>
</svg>
