<svg width="16" height="11" viewBox="0 0 16 11" fill="none" xmlns="http://www.w3.org/2000/svg">
<path d="M14.8061 1.66797C15.1342 2.81641 15.1342 5.27734 15.1342 5.27734C15.1342 5.27734 15.1342 7.71094 14.8061 8.88672C14.642 9.54297 14.1225 10.0352 13.4936 10.1992C12.3178 10.5 7.66938 10.5 7.66938 10.5C7.66938 10.5 2.9936 10.5 1.81782 10.1992C1.18891 10.0352 0.669378 9.54297 0.505316 8.88672C0.177191 7.71094 0.177191 5.27734 0.177191 5.27734C0.177191 5.27734 0.177191 2.81641 0.505316 1.66797C0.669378 1.01172 1.18891 0.492188 1.81782 0.328125C2.9936 0 7.66938 0 7.66938 0C7.66938 0 12.3178 0 13.4936 0.328125C14.1225 0.492188 14.642 1.01172 14.8061 1.66797ZM6.13813 7.49219L10.0209 5.27734L6.13813 3.0625V7.49219Z" fill="white"/>
</svg>
